<mxfile host="app.diagrams.net" modified="2021-02-20T19:08:53.115Z" agent="5.0 (Windows NT 10.0; Win64; x64) AppleWebKit/537.36 (KHTML, like Gecko) Chrome/88.0.4324.182 Safari/537.36" etag="ST7KAU84-rQc2cUP5hfd" version="14.4.2" type="github">
  <diagram name="Page-1" id="4fc8d65c-f3f6-feb3-4d1c-02f59d9f9886">
    <mxGraphModel dx="1718" dy="888" grid="1" gridSize="10" guides="1" tooltips="1" connect="1" arrows="1" fold="1" page="1" pageScale="1" pageWidth="826" pageHeight="1169" background="#ffffff" math="0" shadow="0">
      <root>
        <mxCell id="0" />
        <mxCell id="1" parent="0" />
        <mxCell id="fDX6BxyX9Kbmln29vvni-277" value="" style="rounded=1;whiteSpace=wrap;html=1;fillColor=#f5f5f5;strokeColor=#666666;fontColor=#333333;" parent="1" vertex="1">
          <mxGeometry x="200" y="210" width="400" height="80" as="geometry" />
        </mxCell>
        <mxCell id="gGTz0LXvLgwchQPlnERu-32" style="edgeStyle=orthogonalEdgeStyle;rounded=0;orthogonalLoop=1;jettySize=auto;html=1;exitX=0.5;exitY=0;exitDx=0;exitDy=0;entryX=0.5;entryY=1;entryDx=0;entryDy=0;startArrow=none;startFill=0;" edge="1" parent="1" source="fDX6BxyX9Kbmln29vvni-283" target="gGTz0LXvLgwchQPlnERu-13">
          <mxGeometry relative="1" as="geometry" />
        </mxCell>
        <mxCell id="fDX6BxyX9Kbmln29vvni-283" value="" style="rounded=1;whiteSpace=wrap;html=1;fillColor=#f5f5f5;strokeColor=#666666;fontColor=#333333;" parent="1" vertex="1">
          <mxGeometry x="200" y="340" width="400" height="90" as="geometry" />
        </mxCell>
        <mxCell id="gGTz0LXvLgwchQPlnERu-26" style="edgeStyle=orthogonalEdgeStyle;rounded=0;orthogonalLoop=1;jettySize=auto;html=1;exitX=0.5;exitY=0;exitDx=0;exitDy=0;entryX=0.5;entryY=1;entryDx=0;entryDy=0;" edge="1" parent="1" source="gGTz0LXvLgwchQPlnERu-2" target="gGTz0LXvLgwchQPlnERu-12">
          <mxGeometry relative="1" as="geometry" />
        </mxCell>
        <mxCell id="gGTz0LXvLgwchQPlnERu-2" value="" style="rounded=1;whiteSpace=wrap;html=1;fillColor=#f5f5f5;strokeColor=#666666;fontColor=#333333;" vertex="1" parent="1">
          <mxGeometry x="205" y="485" width="400" height="80" as="geometry" />
        </mxCell>
        <mxCell id="gGTz0LXvLgwchQPlnERu-7" style="edgeStyle=orthogonalEdgeStyle;rounded=0;orthogonalLoop=1;jettySize=auto;html=1;entryX=0.5;entryY=1;entryDx=0;entryDy=0;startArrow=classic;startFill=1;" edge="1" parent="1">
          <mxGeometry relative="1" as="geometry">
            <mxPoint x="830" y="490" as="sourcePoint" />
            <mxPoint x="830" y="440" as="targetPoint" />
            <Array as="points">
              <mxPoint x="830" y="478" />
              <mxPoint x="830" y="478" />
            </Array>
          </mxGeometry>
        </mxCell>
        <mxCell id="gGTz0LXvLgwchQPlnERu-10" value="Sensors" style="rounded=1;whiteSpace=wrap;html=1;fillColor=#d5e8d4;strokeColor=#82b366;" vertex="1" parent="1">
          <mxGeometry x="340" y="555" width="120" height="30" as="geometry" />
        </mxCell>
        <mxCell id="gGTz0LXvLgwchQPlnERu-12" value="Gateways" style="rounded=1;whiteSpace=wrap;html=1;fillColor=#d5e8d4;strokeColor=#82b366;" vertex="1" parent="1">
          <mxGeometry x="340" y="420" width="120" height="30" as="geometry" />
        </mxCell>
        <mxCell id="gGTz0LXvLgwchQPlnERu-13" value="Processing Unit" style="rounded=1;whiteSpace=wrap;html=1;fillColor=#d5e8d4;strokeColor=#82b366;" vertex="1" parent="1">
          <mxGeometry x="340" y="280" width="120" height="30" as="geometry" />
        </mxCell>
        <mxCell id="gGTz0LXvLgwchQPlnERu-14" value="" style="shape=mxgraph.signs.tech.video_camera;html=1;pointerEvents=1;fillColor=#000000;strokeColor=none;verticalLabelPosition=bottom;verticalAlign=top;align=center;" vertex="1" parent="1">
          <mxGeometry x="222.5" y="512.75" width="43" height="20" as="geometry" />
        </mxCell>
        <mxCell id="gGTz0LXvLgwchQPlnERu-16" value="" style="shape=image;html=1;verticalAlign=top;verticalLabelPosition=bottom;labelBackgroundColor=#ffffff;imageAspect=0;aspect=fixed;image=https://cdn1.iconfinder.com/data/icons/essentials-pack/96/gps_position_tracking_positioning_navigation-128.png" vertex="1" parent="1">
          <mxGeometry x="272.5" y="502.75" width="40" height="40" as="geometry" />
        </mxCell>
        <mxCell id="gGTz0LXvLgwchQPlnERu-17" value="" style="shape=image;html=1;verticalAlign=top;verticalLabelPosition=bottom;labelBackgroundColor=#ffffff;imageAspect=0;aspect=fixed;image=https://cdn4.iconfinder.com/data/icons/essential-app-1/16/mic-microphone-record-speak-128.png" vertex="1" parent="1">
          <mxGeometry x="312.5" y="505.5" width="34.5" height="34.5" as="geometry" />
        </mxCell>
        <mxCell id="gGTz0LXvLgwchQPlnERu-19" value="" style="shape=image;html=1;verticalAlign=top;verticalLabelPosition=bottom;labelBackgroundColor=#ffffff;imageAspect=0;aspect=fixed;image=https://cdn3.iconfinder.com/data/icons/wpzoom-developer-icon-set/500/97-128.png" vertex="1" parent="1">
          <mxGeometry x="347" y="503.75" width="40" height="40" as="geometry" />
        </mxCell>
        <mxCell id="gGTz0LXvLgwchQPlnERu-20" value="" style="shape=image;html=1;verticalAlign=top;verticalLabelPosition=bottom;labelBackgroundColor=#ffffff;imageAspect=0;aspect=fixed;image=https://cdn2.iconfinder.com/data/icons/exercise-and-gym-solid-the-body-building/512/Heart_rate-128.png" vertex="1" parent="1">
          <mxGeometry x="382.25" y="501.5" width="45.5" height="45.5" as="geometry" />
        </mxCell>
        <mxCell id="gGTz0LXvLgwchQPlnERu-21" value="" style="shape=image;html=1;verticalAlign=top;verticalLabelPosition=bottom;labelBackgroundColor=#ffffff;imageAspect=0;aspect=fixed;image=https://cdn1.iconfinder.com/data/icons/science-technology-outline-24-px/24/Digital_thermometer_medical_accessories_mercury_thermometer_temperature_thermometer-128.png" vertex="1" parent="1">
          <mxGeometry x="416.25" y="503" width="42.5" height="42.5" as="geometry" />
        </mxCell>
        <mxCell id="gGTz0LXvLgwchQPlnERu-22" value="" style="shape=image;html=1;verticalAlign=top;verticalLabelPosition=bottom;labelBackgroundColor=#ffffff;imageAspect=0;aspect=fixed;image=https://cdn3.iconfinder.com/data/icons/weather-solid-daily-forecast/512/Sunny_Day-128.png" vertex="1" parent="1">
          <mxGeometry x="446" y="498.5" width="53" height="53" as="geometry" />
        </mxCell>
        <mxCell id="gGTz0LXvLgwchQPlnERu-23" value="" style="shape=mxgraph.signs.food.drinking_water_2;html=1;pointerEvents=1;fillColor=#000000;strokeColor=none;verticalLabelPosition=bottom;verticalAlign=top;align=center;" vertex="1" parent="1">
          <mxGeometry x="499" y="503.75" width="29" height="38" as="geometry" />
        </mxCell>
        <mxCell id="gGTz0LXvLgwchQPlnERu-24" value="" style="shadow=0;dashed=0;html=1;strokeColor=none;labelPosition=center;verticalLabelPosition=bottom;verticalAlign=top;align=center;outlineConnect=0;shape=mxgraph.veeam.time;fillColor=#000000;" vertex="1" parent="1">
          <mxGeometry x="532.5" y="502.75" width="45" height="41" as="geometry" />
        </mxCell>
        <mxCell id="gGTz0LXvLgwchQPlnERu-28" value="" style="pointerEvents=1;shadow=0;dashed=0;html=1;aspect=fixed;labelPosition=center;verticalLabelPosition=bottom;verticalAlign=top;align=center;outlineConnect=0;shape=mxgraph.vvd.wi_fi;fillColor=#000000;" vertex="1" parent="1">
          <mxGeometry x="470" y="364" width="40" height="40" as="geometry" />
        </mxCell>
        <mxCell id="gGTz0LXvLgwchQPlnERu-29" value="" style="shape=image;html=1;verticalAlign=top;verticalLabelPosition=bottom;labelBackgroundColor=#ffffff;imageAspect=0;aspect=fixed;image=https://cdn0.iconfinder.com/data/icons/google-material-design-3-0/48/ic_settings_bluetooth_48px-128.png;shadow=0;strokeColor=#000000;fillColor=#000000;gradientColor=#000000;" vertex="1" parent="1">
          <mxGeometry x="420" y="366" width="38" height="38" as="geometry" />
        </mxCell>
        <mxCell id="gGTz0LXvLgwchQPlnERu-30" value="" style="shape=image;html=1;verticalAlign=top;verticalLabelPosition=bottom;labelBackgroundColor=#ffffff;imageAspect=0;aspect=fixed;image=https://cdn1.iconfinder.com/data/icons/windows8_icons/26/wired_network.png;shadow=0;strokeColor=#000000;fillColor=#000000;gradientColor=#000000;" vertex="1" parent="1">
          <mxGeometry x="370" y="366" width="36" height="36" as="geometry" />
        </mxCell>
        <mxCell id="gGTz0LXvLgwchQPlnERu-31" value="" style="shape=image;html=1;verticalAlign=top;verticalLabelPosition=bottom;labelBackgroundColor=#ffffff;imageAspect=0;aspect=fixed;image=https://cdn1.iconfinder.com/data/icons/ios-11-glyphs/30/cellular_network-128.png;shadow=0;strokeColor=#000000;fillColor=#000000;gradientColor=#000000;" vertex="1" parent="1">
          <mxGeometry x="300" y="360" width="50" height="50" as="geometry" />
        </mxCell>
        <mxCell id="gGTz0LXvLgwchQPlnERu-35" value="" style="strokeWidth=2;html=1;shape=mxgraph.flowchart.database;whiteSpace=wrap;shadow=0;gradientColor=#ffffff;fillColor=none;" vertex="1" parent="1">
          <mxGeometry x="335" y="230" width="30" height="40" as="geometry" />
        </mxCell>
        <mxCell id="gGTz0LXvLgwchQPlnERu-36" value="" style="pointerEvents=1;shadow=0;dashed=0;html=1;strokeColor=none;aspect=fixed;labelPosition=center;verticalLabelPosition=bottom;verticalAlign=top;align=center;outlineConnect=0;shape=mxgraph.vvd.cpu;fillColor=#000000;" vertex="1" parent="1">
          <mxGeometry x="375" y="230" width="40" height="40" as="geometry" />
        </mxCell>
        <mxCell id="gGTz0LXvLgwchQPlnERu-39" value="" style="shape=mxgraph.bpmn.service_task;html=1;outlineConnect=0;shadow=0;strokeColor=#000000;gradientColor=#ffffff;strokeWidth=1;fillColor=#D4D4D4;" vertex="1" parent="1">
          <mxGeometry x="425" y="230" width="40" height="40" as="geometry" />
        </mxCell>
        <mxCell id="gGTz0LXvLgwchQPlnERu-40" value="" style="rounded=1;whiteSpace=wrap;html=1;fillColor=#f5f5f5;strokeColor=#666666;fontColor=#333333;" vertex="1" parent="1">
          <mxGeometry x="200" y="80" width="400" height="80" as="geometry" />
        </mxCell>
        <mxCell id="gGTz0LXvLgwchQPlnERu-41" style="edgeStyle=orthogonalEdgeStyle;rounded=0;orthogonalLoop=1;jettySize=auto;html=1;exitX=0.5;exitY=0;exitDx=0;exitDy=0;entryX=0.5;entryY=1;entryDx=0;entryDy=0;startArrow=none;startFill=0;" edge="1" parent="1" target="gGTz0LXvLgwchQPlnERu-42" source="fDX6BxyX9Kbmln29vvni-277">
          <mxGeometry relative="1" as="geometry">
            <mxPoint x="395" y="200" as="sourcePoint" />
          </mxGeometry>
        </mxCell>
        <mxCell id="gGTz0LXvLgwchQPlnERu-42" value="User Applications" style="rounded=1;whiteSpace=wrap;html=1;fillColor=#d5e8d4;strokeColor=#82b366;" vertex="1" parent="1">
          <mxGeometry x="340" y="150" width="120" height="30" as="geometry" />
        </mxCell>
        <mxCell id="gGTz0LXvLgwchQPlnERu-44" value="" style="shape=image;html=1;verticalAlign=top;verticalLabelPosition=bottom;labelBackgroundColor=#ffffff;imageAspect=0;aspect=fixed;image=https://cdn1.iconfinder.com/data/icons/line-free/24/Smart_watch-128.png;shadow=0;strokeColor=#000000;strokeWidth=1;fillColor=#D4D4D4;gradientColor=#ffffff;" vertex="1" parent="1">
          <mxGeometry x="425" y="97" width="40" height="40" as="geometry" />
        </mxCell>
        <mxCell id="gGTz0LXvLgwchQPlnERu-45" value="" style="pointerEvents=1;shadow=0;dashed=0;html=1;strokeColor=none;fillColor=#434445;aspect=fixed;labelPosition=center;verticalLabelPosition=bottom;verticalAlign=top;align=center;outlineConnect=0;shape=mxgraph.vvd.phone;" vertex="1" parent="1">
          <mxGeometry x="385" y="97" width="23.6" height="40" as="geometry" />
        </mxCell>
        <mxCell id="gGTz0LXvLgwchQPlnERu-46" value="" style="shape=mxgraph.signs.transportation.car_1;html=1;pointerEvents=1;fillColor=#000000;strokeColor=none;verticalLabelPosition=bottom;verticalAlign=top;align=center;shadow=0;" vertex="1" parent="1">
          <mxGeometry x="326" y="97" width="39" height="40" as="geometry" />
        </mxCell>
        <mxCell id="gGTz0LXvLgwchQPlnERu-47" value="" style="shape=image;html=1;verticalAlign=top;verticalLabelPosition=bottom;labelBackgroundColor=#ffffff;imageAspect=0;aspect=fixed;image=https://cdn2.iconfinder.com/data/icons/innovation-technology-1/512/tech_0011-128.png;shadow=0;strokeColor=#000000;strokeWidth=1;fillColor=#D4D4D4;gradientColor=#ffffff;" vertex="1" parent="1">
          <mxGeometry x="265" y="93" width="54" height="54" as="geometry" />
        </mxCell>
        <mxCell id="gGTz0LXvLgwchQPlnERu-48" value="" style="shape=image;html=1;verticalAlign=top;verticalLabelPosition=bottom;labelBackgroundColor=#ffffff;imageAspect=0;aspect=fixed;image=https://cdn0.iconfinder.com/data/icons/star-wars/512/r2d2-128.png;shadow=0;strokeColor=#000000;strokeWidth=1;fillColor=#D4D4D4;gradientColor=#ffffff;" vertex="1" parent="1">
          <mxGeometry x="215" y="100" width="40" height="40" as="geometry" />
        </mxCell>
        <mxCell id="gGTz0LXvLgwchQPlnERu-49" value="" style="shape=image;html=1;verticalAlign=top;verticalLabelPosition=bottom;labelBackgroundColor=#ffffff;imageAspect=0;aspect=fixed;image=https://cdn3.iconfinder.com/data/icons/wpzoom-developer-icon-set/500/133-128.png;shadow=0;strokeColor=#000000;strokeWidth=1;fillColor=#D4D4D4;gradientColor=#ffffff;" vertex="1" parent="1">
          <mxGeometry x="475" y="93" width="48" height="48" as="geometry" />
        </mxCell>
        <mxCell id="gGTz0LXvLgwchQPlnERu-50" value="" style="shape=image;html=1;verticalAlign=top;verticalLabelPosition=bottom;labelBackgroundColor=#ffffff;imageAspect=0;aspect=fixed;image=https://cdn0.iconfinder.com/data/icons/eon-social-media-contact-info-2/32/world_www_web_website-128.png;shadow=0;strokeColor=#000000;strokeWidth=1;fillColor=#D4D4D4;gradientColor=#ffffff;" vertex="1" parent="1">
          <mxGeometry x="535" y="95" width="50" height="50" as="geometry" />
        </mxCell>
      </root>
    </mxGraphModel>
  </diagram>
</mxfile>
